<?xml version="1.0" encoding="utf-8"?>
<!-- Generator: Adobe Illustrator 17.1.0, SVG Export Plug-In . SVG Version: 6.00 Build 0)  -->
<!DOCTYPE svg PUBLIC "-//W3C//DTD SVG 1.0//EN" "http://www.w3.org/TR/2001/REC-SVG-20010904/DTD/svg10.dtd">
<svg xmlns="http://www.w3.org/2000/svg" xmlns:xlink="http://www.w3.org/1999/xlink" version="1.0" id="Layer_1" x="0px" y="0px" width="24px" height="24px" viewBox="0 0 24 24" style="enable-background:new 0 0 24 24;" xml:space="preserve">
<path style="fill:none;stroke:#000000;stroke-width:1.5;stroke-linejoin:round;stroke-miterlimit:10" d="M17.6,16.8  c3.3,0.6,5.5,1.6,5.5,2.9c0,1.8-5,3.3-11.1,3.3S0.9,21.5,0.9,19.7c0-1.2,2.2-2.3,5.5-2.9"/>
<circle style="fill:#000000" cx="12" cy="3" r="3"/>
<path style="fill:#000000" d="M14,6l-2,4l-2-4L9,7v12.7C9,19.9,9.1,20,9.3,20h1.8c0.1,0,0.3-0.1,0.3-0.3l0.2-4.7h0.8l0.3,4.7  c0,0.1,0.1,0.3,0.3,0.3h1.8c0.2,0,0.3-0.1,0.3-0.3V7L14,6z"/>
<path style="fill:#000000" d="M14,6c0.7,0,1.6,0.5,1.9,1.6c0.4,1.7,1.5,5.5,1.6,5.9c0.1,0.4,0.3,1.3-0.3,1.5  c-0.6,0.2-0.8-0.2-1.2-1c-0.3-0.6-1.2-3.4-1.2-3.4S14.8,7.6,14,6z"/>
<path style="fill:#000000" d="M10,6C9.3,6,8.4,6.5,8.1,7.6c-0.4,1.7-1.5,5.5-1.6,5.9c-0.1,0.4-0.3,1.3,0.3,1.5  c0.6,0.2,0.8-0.2,1.2-1c0.3-0.6,1.2-3.4,1.2-3.4S9.2,7.6,10,6z"/>
</svg>
